<svg width="783" height="153" viewBox="0 0 783 153" fill="none" xmlns="http://www.w3.org/2000/svg">
<path d="M5.4375 122V22.4375H49.4375V41.75H27.8125V61.1875H48.5625V79.875H27.8125V102.562H50.875V122H5.4375ZM83.6875 83.0625L76.5625 122H54.25L66.0625 69.125L56.6875 22.4375H78.1875L83.875 56.4375L88.9375 22.4375H110.5L101.125 69.125L112.875 122H90.625L83.6875 83.0625ZM118.812 122V22.4375H147.875C151.708 22.4375 155.062 22.9375 157.938 23.9375C160.812 24.9375 163.354 26.5625 165.562 28.8125C167.771 31.0625 169.438 34.1875 170.562 38.1875C171.729 42.1458 172.312 46.9583 172.312 52.625C172.312 57.5 171.958 61.6875 171.25 65.1875C170.583 68.6458 169.417 71.7292 167.75 74.4375C166.083 77.1458 163.708 79.1875 160.625 80.5625C157.583 81.8958 153.833 82.5625 149.375 82.5625H140.438V122H118.812ZM140.438 40.5625V64.625H141.688C142.854 64.625 143.729 64.6042 144.312 64.5625C144.938 64.4792 145.646 64.3333 146.438 64.125C147.271 63.875 147.875 63.5 148.25 63C148.667 62.4583 149.083 61.75 149.5 60.875C149.917 59.9583 150.188 58.7917 150.312 57.375C150.479 55.9583 150.562 54.25 150.562 52.25C150.562 47.875 149.979 44.8333 148.812 43.125C147.688 41.4167 145.708 40.5625 142.875 40.5625H140.438ZM178.812 122V22.4375H222.812V41.75H201.188V61.1875H221.938V79.875H201.188V102.562H224.25V122H178.812ZM254.938 76.6875C254.938 76.6875 254.938 91.7917 254.938 122H232.688V22.4375H266.438C269.896 22.4375 272.854 22.9167 275.312 23.875C277.771 24.7917 279.708 26.0208 281.125 27.5625C282.542 29.0625 283.646 31.0833 284.438 33.625C285.271 36.125 285.812 38.6458 286.062 41.1875C286.312 43.6875 286.438 46.7292 286.438 50.3125C286.438 52.1875 286.396 53.7292 286.312 54.9375C286.271 56.1042 286.042 57.6042 285.625 59.4375C285.25 61.2292 284.708 62.7292 284 63.9375C283.292 65.1458 282.208 66.3333 280.75 67.5C279.333 68.6667 277.604 69.5625 275.562 70.1875C277.604 70.5625 279.292 71.2708 280.625 72.3125C281.958 73.3125 282.917 74.5625 283.5 76.0625C284.083 77.5625 284.479 78.9583 284.688 80.25C284.896 81.5 285 82.9167 285 84.5C285 100.958 284.917 113.458 284.75 122H263.25V83.1875C263.25 81.6458 263.083 80.4167 262.75 79.5C262.458 78.5833 261.875 77.9375 261 77.5625C260.167 77.1458 259.354 76.8958 258.562 76.8125C257.771 76.7292 256.562 76.6875 254.938 76.6875ZM255.062 40.875V59.4375H260.562C263.479 59.4375 264.938 56.3958 264.938 50.3125C264.938 46.2708 264.354 43.6875 263.188 42.5625C262.062 41.4375 259.75 40.875 256.25 40.875H255.062ZM295.062 122V22.4375H316.312V122H295.062ZM327.188 122V22.4375H371.188V41.75H349.562V61.1875H370.312V79.875H349.562V102.562H372.625V122H327.188ZM435.062 22.4375V122H413.562L402.562 72.1875V122H381.062V22.4375H403.688L413.812 70.0625V22.4375H435.062ZM499.062 79.125V97.9375C499.062 106.604 496.604 112.979 491.688 117.062C486.771 121.104 479.896 123.125 471.062 123.125C463.229 123.125 456.854 120.896 451.938 116.438C447.021 111.938 444.562 105.562 444.562 97.3125V51.125C444.562 41.25 446.729 33.875 451.062 29C455.438 24.0833 462.271 21.625 471.562 21.625C475.354 21.625 478.854 22.1042 482.062 23.0625C485.271 23.9792 488.104 25.3542 490.562 27.1875C493.062 29.0208 495.021 31.4375 496.438 34.4375C497.854 37.3958 498.562 40.8125 498.562 44.6875V62.25H476.812V50.6875C476.812 44.7292 475.062 41.75 471.562 41.75C469.479 41.75 468.104 42.4167 467.438 43.75C466.771 45.0417 466.438 46.8542 466.438 49.1875V96.25C466.438 98.2917 466.896 100.062 467.812 101.562C468.771 103.062 470.021 103.812 471.562 103.812C472.979 103.812 474.208 103.271 475.25 102.188C476.292 101.062 476.812 99.0833 476.812 96.25V79.125H499.062ZM508.062 122V22.4375H552.062V41.75H530.438V61.1875H551.188V79.875H530.438V102.562H553.5V122H508.062ZM587.875 123.125C577.667 123.125 570.375 120.792 566 116.125C561.667 111.458 559.5 104.25 559.5 94.5V84.75H581.25V93.6875C581.25 100.104 583 103.312 586.5 103.312C588.125 103.312 589.396 102.688 590.312 101.438C591.271 100.188 591.75 98.5417 591.75 96.5C591.75 93.8333 591.375 91.5833 590.625 89.75C589.917 87.9167 588.812 86.1875 587.312 84.5625C585.854 82.8958 583.438 80.6042 580.062 77.6875L570.75 69.625C563.25 63.1667 559.5 55.875 559.5 47.75C559.5 38.9167 561.75 32.3542 566.25 28.0625C570.792 23.7292 577.021 21.5625 584.938 21.5625C585.146 21.5625 585.333 21.5625 585.5 21.5625C585.667 21.5625 586.771 21.5625 588.812 21.5625C590.854 21.5625 593.479 22.0417 596.688 23C599.896 23.9167 602.75 25.4792 605.25 27.6875C607.75 29.8542 609.625 32.8958 610.875 36.8125C612.125 40.6875 612.75 45.4375 612.75 51.0625H590.438L590.312 45.0625C590.271 43.9375 589.792 42.9375 588.875 42.0625C587.958 41.1875 586.938 40.75 585.812 40.75C584.354 40.75 583.104 41.2083 582.062 42.125C581.062 43 580.562 44.1458 580.562 45.5625C580.562 48.3958 582.625 51.4792 586.75 54.8125L600.062 65.5625C602.229 67.3125 604.104 69.1042 605.688 70.9375C607.312 72.7292 608.583 74.5208 609.5 76.3125C610.458 78.0625 611.229 79.6667 611.812 81.125C612.396 82.5417 612.792 84.1042 613 85.8125C613.25 87.4792 613.396 88.75 613.438 89.625C613.479 90.4583 613.5 91.5625 613.5 92.9375C613.5 96.4375 613.271 99.625 612.812 102.5C612.354 105.333 611.542 108.083 610.375 110.75C609.208 113.375 607.667 115.583 605.75 117.375C603.875 119.125 601.417 120.521 598.375 121.562C595.375 122.604 591.875 123.125 587.875 123.125Z" fill="#007B88"/>
<path d="M293.769 81C324.074 81.8921 354.542 82.0753 384.639 85.7131C426.629 90.7883 466.682 101.648 506.696 113.52C530.908 120.704 556.236 127.167 578.612 138.264C584.086 140.978 593.038 144.986 597.431 149.34C597.902 149.806 597.331 150.449 596.759 150.518C591.849 151.112 572.398 150.99 572.294 150.989C510.641 150.49 449.263 146.62 387.865 141.917C320.961 136.791 254.044 131.669 187.171 126.246C146.45 122.943 105.822 118.466 65.0473 115.7C64.9687 115.695 41.8434 115.839 55.1 113.874C96.5244 107.733 138.739 104.659 180.651 102.739C299.689 97.2852 418.849 101.533 537.075 114.463C567.292 117.767 597.426 121.461 627.139 127.365C627.41 127.419 641.288 129.151 641.993 131.312C642.291 132.226 633.229 131.901 632.516 131.901" stroke="white" stroke-width="3" stroke-linecap="round"/>
</svg>
