<svg width="817" height="175" viewBox="0 0 817 175" fill="none" xmlns="http://www.w3.org/2000/svg">
<path d="M38.875 125V15H72.375L81.625 82.0625L90.8125 15H124.625V125H104.5V45.75L91.875 125H72.125L58.75 45.75V125H38.875ZM131.375 125L142 15H179.312L189.75 125H168.938L167.375 107.25H154.125L152.75 125H131.375ZM155.688 89.6875H165.688L160.875 33.75H159.875L155.688 89.6875ZM221.938 126C212.771 126 206.021 123.438 201.688 118.312C197.354 113.146 195.188 105.562 195.188 95.5625V15H216.562V94.6875C216.562 96.5208 216.667 98.2917 216.875 100C217.083 101.667 217.562 103.042 218.312 104.125C219.062 105.208 220.271 105.75 221.938 105.75C223.646 105.75 224.875 105.229 225.625 104.188C226.375 103.104 226.833 101.708 227 100C227.208 98.2917 227.312 96.5208 227.312 94.6875V15H248.688V95.5625C248.688 105.562 246.521 113.146 242.188 118.312C237.854 123.438 231.104 126 221.938 126ZM257.125 125V15H279.125V106.25H301.75V125H257.125ZM305 125L315.625 15H352.938L363.375 125H342.562L341 107.25H327.75L326.375 125H305ZM329.312 89.6875H339.312L334.5 33.75H333.5L329.312 89.6875ZM370.125 125V15H392.75L402.875 67.6875V15H424.125V125H402.625L391.625 70V125H370.125ZM430.875 125L441.5 15H478.812L489.25 125H468.438L466.875 107.25H453.625L452.25 125H430.875ZM455.188 89.6875H465.188L460.375 33.75H459.375L455.188 89.6875Z" fill="white"/>
<path d="M290.239 78C326.22 79.2083 362.395 79.4566 398.129 84.384C447.983 91.2586 495.538 105.968 543.046 122.05C571.793 131.781 601.865 140.535 628.432 155.566C634.931 159.243 645.56 164.671 650.776 170.568C651.336 171.201 650.657 172.071 649.978 172.164C644.148 172.969 621.055 172.804 620.931 172.803C547.73 172.127 474.857 166.885 401.959 160.513C322.524 153.571 243.074 146.632 163.675 139.287C115.327 134.814 67.0898 128.748 18.6783 125.002C18.585 124.995 -8.87157 125.19 6.86789 122.529C56.0509 114.211 106.172 110.047 155.935 107.446C297.267 100.059 438.745 105.813 579.116 123.327C614.991 127.803 650.77 132.806 686.048 140.803C686.369 140.876 702.848 143.222 703.684 146.149C704.037 147.387 693.278 146.947 692.432 146.947" stroke="#007B88" stroke-width="3" stroke-linecap="round"/>
</svg>
