<svg width="783" height="143" viewBox="0 0 783 143" fill="none" xmlns="http://www.w3.org/2000/svg">
<path d="M58.4375 122H38.6875L26.5625 50.1875V122H5.4375V22.4375H38.9375L48.1875 74.375L57.375 22.4375H91.1875V122H69.8125V50.1875L58.4375 122ZM98.5625 133.625V119.438H105.562C107.896 119.438 109.479 119.146 110.312 118.562C111.188 117.979 111.625 116.979 111.625 115.562C111.625 114.771 111.521 113.688 111.312 112.312L96.875 28.1875H118.938L123.062 70.6875L124.562 91.4375L126.312 70.6875L131.312 28.1875H153.5L136.125 122.875C135.958 124.042 135.708 125.104 135.375 126.062C135.083 127.021 134.771 127.854 134.438 128.562C134.146 129.271 133.729 129.896 133.188 130.438C132.646 130.979 132.167 131.417 131.75 131.75C131.333 132.125 130.75 132.438 130 132.688C129.25 132.938 128.625 133.125 128.125 133.25C127.667 133.375 126.958 133.458 126 133.5C125.083 133.583 124.354 133.625 123.812 133.625C123.271 133.625 122.458 133.625 121.375 133.625H98.5625Z" fill="#007B88"/>
<path d="M188.688 122V22.4375H217.75C221.583 22.4375 224.938 22.9375 227.812 23.9375C230.688 24.9375 233.229 26.5625 235.438 28.8125C237.646 31.0625 239.312 34.1875 240.438 38.1875C241.604 42.1458 242.188 46.9583 242.188 52.625C242.188 57.5 241.833 61.6875 241.125 65.1875C240.458 68.6458 239.292 71.7292 237.625 74.4375C235.958 77.1458 233.583 79.1875 230.5 80.5625C227.458 81.8958 223.708 82.5625 219.25 82.5625H210.312V122H188.688ZM210.312 40.5625V64.625H211.562C212.729 64.625 213.604 64.6042 214.188 64.5625C214.812 64.4792 215.521 64.3333 216.312 64.125C217.146 63.875 217.75 63.5 218.125 63C218.542 62.4583 218.958 61.75 219.375 60.875C219.792 59.9583 220.062 58.7917 220.188 57.375C220.354 55.9583 220.438 54.25 220.438 52.25C220.438 47.875 219.854 44.8333 218.688 43.125C217.562 41.4167 215.583 40.5625 212.75 40.5625H210.312ZM248.5 122V28.25H270.875V38.6875C272.125 34.3958 273.875 31.3958 276.125 29.6875C278.375 27.9792 281.229 27.125 284.688 27.125C288.854 27.125 292.521 28.4167 295.688 31C298.854 33.5417 300.438 37.25 300.438 42.125V73.5H278.562V51.0625C278.562 49.9375 278.5 49 278.375 48.25C278.292 47.4583 277.958 46.7083 277.375 46C276.833 45.2917 276.042 44.9375 275 44.9375C273.917 44.9375 272.958 45.4167 272.125 46.375C271.292 47.3333 270.875 48.6458 270.875 50.3125V122H248.5ZM334.188 123.125C315.521 123.125 306.188 113.396 306.188 93.9375V56.3125C306.188 47.3542 308.688 40.25 313.688 35C318.688 29.75 325.521 27.125 334.188 27.125C342.896 27.125 349.75 29.75 354.75 35C359.75 40.25 362.25 47.3542 362.25 56.3125V93.9375C362.25 103.729 359.854 111.042 355.062 115.875C350.312 120.708 343.354 123.125 334.188 123.125ZM328.938 52.75V98.5625C328.938 101.062 329.417 102.896 330.375 104.062C331.375 105.188 332.646 105.75 334.188 105.75C335.729 105.75 336.979 105.188 337.938 104.062C338.938 102.896 339.438 101.062 339.438 98.5625V52.75C339.438 47.2917 337.688 44.5625 334.188 44.5625C330.688 44.5625 328.938 47.2917 328.938 52.75ZM372.188 28.25H394.562V111.625C394.562 118.667 393.146 123.979 390.312 127.562C387.521 131.188 383.062 133 376.938 133C372.146 133 368.979 132.458 367.438 131.375C367.438 131.375 367.438 126.375 367.438 116.375C368.104 116.583 368.792 116.688 369.5 116.688C370.542 116.688 371.25 116.333 371.625 115.625C372 114.875 372.188 113.75 372.188 112.25V28.25ZM372.188 22.4375V11.4375H394.562V22.4375H372.188ZM430.375 123.125C427.042 123.125 424.021 122.771 421.312 122.062C418.604 121.396 416.312 120.521 414.438 119.438C412.604 118.312 411 116.917 409.625 115.25C408.292 113.542 407.229 111.812 406.438 110.062C405.646 108.312 405 106.312 404.5 104.062C404.042 101.812 403.729 99.7292 403.562 97.8125C403.438 95.8958 403.375 93.7708 403.375 91.4375V53.75C403.375 45.125 405.833 38.5417 410.75 34C415.708 29.4167 422.625 27.125 431.5 27.125C449.5 27.125 458.5 36 458.5 53.75V60.5625C458.5 69.0208 458.417 74.8333 458.25 78H425.75V91.125C425.75 91.5417 425.729 92.2292 425.688 93.1875C425.688 94.1042 425.688 94.8125 425.688 95.3125C425.688 96.8125 425.75 98.1042 425.875 99.1875C426 100.229 426.229 101.312 426.562 102.438C426.896 103.521 427.438 104.354 428.188 104.938C428.979 105.479 429.958 105.75 431.125 105.75C432.333 105.75 433.312 105.333 434.062 104.5C434.812 103.625 435.333 102.396 435.625 100.812C435.958 99.1875 436.167 97.75 436.25 96.5C436.333 95.25 436.375 93.6875 436.375 91.8125C436.375 88.1458 436.333 86.1458 436.25 85.8125H458.5V91.125C458.5 96.3333 458.104 100.771 457.312 104.438C456.521 108.104 455.104 111.417 453.062 114.375C451.062 117.292 448.188 119.479 444.438 120.938C440.688 122.396 436 123.125 430.375 123.125ZM431.25 43.9375C430.083 43.9375 429.104 44.25 428.312 44.875C427.521 45.4583 426.938 46.3542 426.562 47.5625C426.188 48.7708 425.938 50.0208 425.812 51.3125C425.688 52.5625 425.625 54.1042 425.625 55.9375C425.625 56.8125 425.646 58.125 425.688 59.875C425.729 61.625 425.75 62.9375 425.75 63.8125H436.25V54.0625C436.25 47.3125 434.583 43.9375 431.25 43.9375ZM465.688 91.25C465.688 91.25 465.688 81.625 465.688 62.375C465.688 49.7083 467.875 40.6667 472.25 35.25C476.625 29.8333 483.979 27.125 494.312 27.125C502.354 27.125 508.896 29.25 513.938 33.5C518.979 37.75 521.5 43.6042 521.5 51.0625V67.0625H498.688V52.25C498.688 49.9167 498.333 48.0625 497.625 46.6875C496.958 45.2708 495.646 44.5625 493.688 44.5625C490.021 44.5625 488.188 47.1667 488.188 52.375V97.8125C488.188 99.7292 488.604 101.5 489.438 103.125C490.271 104.708 491.646 105.5 493.562 105.5C494.104 105.5 494.625 105.396 495.125 105.188C495.667 104.979 496.229 104.625 496.812 104.125C497.438 103.625 497.917 102.833 498.25 101.75C498.625 100.625 498.812 99.2708 498.812 97.6875L498.688 83.625H521.5V98.3125C521.5 106.021 519 112.083 514 116.5C509.042 120.917 502.583 123.125 494.625 123.125C490.958 123.125 487.646 122.771 484.688 122.062C481.729 121.354 479.25 120.438 477.25 119.312C475.292 118.146 473.583 116.688 472.125 114.938C470.667 113.188 469.521 111.438 468.688 109.688C467.896 107.938 467.25 105.938 466.75 103.688C466.292 101.396 466 99.3333 465.875 97.5C465.75 95.625 465.688 93.5417 465.688 91.25ZM531.062 11.9375H552.812V31.875H556.812V48.9375H552.812V101.688C552.812 102.479 552.833 103.104 552.875 103.562C552.917 104.021 553 104.521 553.125 105.062C553.25 105.562 553.479 105.938 553.812 106.188C554.188 106.396 554.646 106.5 555.188 106.5C555.729 106.5 556.271 106.417 556.812 106.25V121.5C553.646 122.583 549.667 123.125 544.875 123.125C542.458 123.125 540.375 122.792 538.625 122.125C536.917 121.5 535.583 120.729 534.625 119.812C533.667 118.854 532.896 117.646 532.312 116.188C531.771 114.688 531.417 113.292 531.25 112C531.125 110.708 531.062 109.229 531.062 107.562V48.9375H527.625V31.875H531.062V11.9375ZM595.312 56.1875L595.188 52.625C595.188 51.7917 595.125 50.9583 595 50.125C594.875 49.2917 594.646 48.4375 594.312 47.5625C593.979 46.6458 593.479 45.9167 592.812 45.375C592.146 44.8333 591.354 44.5625 590.438 44.5625C588.896 44.5625 587.708 45 586.875 45.875C586.083 46.75 585.688 47.9792 585.688 49.5625C585.688 52.8958 587.021 55.5417 589.688 57.5L603.5 67.625C606.25 69.6667 608.625 71.8125 610.625 74.0625C612.625 76.3125 614.125 78.375 615.125 80.25C616.167 82.0833 616.979 84.0625 617.562 86.1875C618.188 88.3125 618.562 90.0417 618.688 91.375C618.812 92.7083 618.875 94.2083 618.875 95.875C618.875 104.833 616.333 111.625 611.25 116.25C606.208 120.833 599.354 123.125 590.688 123.125C572.188 123.125 562.938 113.708 562.938 94.875L563.062 87.4375H585.438L585.562 98.4375C585.562 99.9375 585.729 101.188 586.062 102.188C586.438 103.146 586.938 103.833 587.562 104.25C588.188 104.667 588.75 104.938 589.25 105.062C589.792 105.188 590.396 105.25 591.062 105.25C594.062 105.25 595.562 102.812 595.562 97.9375C595.562 96.6875 595.542 95.7917 595.5 95.25C595.458 94.6667 595.292 93.8333 595 92.75C594.75 91.625 594.312 90.6458 593.688 89.8125C593.104 88.9792 592.229 87.9583 591.062 86.75C589.938 85.5417 588.5 84.2708 586.75 82.9375L574.812 73.75C572.229 71.75 570.125 69.8125 568.5 67.9375C566.917 66.0208 565.75 64.0208 565 61.9375C564.292 59.8125 563.833 57.9167 563.625 56.25C563.417 54.5417 563.312 52.3542 563.312 49.6875C563.312 44.8958 564.688 40.75 567.438 37.25C570.188 33.75 573.604 31.1875 577.688 29.5625C581.812 27.9375 586.271 27.125 591.062 27.125C599.854 27.125 606.583 29.3542 611.25 33.8125C615.958 38.2708 618.312 45.1458 618.312 54.4375V56.1875H595.312Z" fill="white"/>
<path d="M411.769 71C442.074 71.8921 472.542 72.0753 502.639 75.7131C544.629 80.7883 584.682 91.648 624.696 103.52C648.908 110.704 674.236 117.167 696.612 128.264C702.086 130.978 711.038 134.986 715.431 139.34C715.902 139.806 715.331 140.449 714.759 140.518C709.849 141.112 690.398 140.99 690.294 140.989C628.641 140.49 567.263 136.62 505.865 131.917C438.961 126.791 372.044 121.669 305.171 116.246C264.45 112.943 223.822 108.466 183.047 105.7C182.969 105.695 159.843 105.839 173.1 103.874C214.524 97.7331 256.739 94.6593 298.651 92.7391C417.689 87.2852 536.849 91.5332 655.075 104.463C685.292 107.767 715.426 111.461 745.139 117.365C745.41 117.419 759.288 119.151 759.993 121.312C760.291 122.226 751.229 121.901 750.516 121.901" stroke="#007B88" stroke-width="3" stroke-linecap="round"/>
</svg>
